<?xml version="1.0" encoding="UTF-8"?>
<svg xmlns="http://www.w3.org/2000/svg" width="1283.195" height="669.418" viewBox="-241.597 130.537 1283.195 669.418" enable-background="new -241.597 130.537 1283.195 669.418">
   <g fill="#123456" stroke="#000" stroke-linecap="round" stroke-linejoin="round" stroke-miterlimit="10">
      <path fill="{{gkz10000}}" d="M857.979 543.229h.451l-.451-1.742 4.793-1.309.07.271-.074-.287.45-.426 3.482-6.108 2.171.428-2.169 2.624 1.742 1.743 2.191-1.307-1.317-4.799h2.61l.002-.009.016.021 4.341-.882 3.941-1.309.002-.019 1.304-.433 5.653-.427.195.68-.195-.682 7.848-6.539 4.361-1.755 3.929-3.483-1.31-2.173 2.172-.881 1.742-3.481h.008l3.051-5.67-.004-.005-4.338-6.103h-.454l-.427-5.651 3.049-6.1-.002-.001-.427-2.192 2.599-1.307 1.315-1.748-.862-1.738 3.48-1.741v-4.8l-3.48-6.984.859-2.169h-.002l-5.654-.884-2.618-.86h-.001v-.001l-.003-.001.003-.002v-1.741l-2.622-5.242h-.001v-6.535l.431-4.795.449.433h.002l-.448-.432-.003-.002.449-6.103-6.103-.879 3.053-5.226 4.793 1.314-1.308 3.479 1.308 1.74 5.224-5.223 1.31-4.362 1.312-.431.003.002 2.168-1.307.004-.003-.859-.881 2.604-2.603-2.175-2.619-.005-.004-4.791-3.485 5.671-2.619.864-1.312 2.187 1.312 1.743-1.312.861-2.172-1.315-.451 2.193-2.602h.001l.431-3.928 4.363-4.361.009-.005 10.898-2.604 3.925 5.653-.002.002 5.657 8.294 1.31-.45.002.005 2.619-4.343.002-.002 1.744-2.191 3.482-5.225-.002-.002 1.311-3.047 3.052-3.935.882.88v-.021l5.65-2.17.452-2.189-.452-9.57 8.729-.431 7.412-4.364 4.363-.447h.434l.002.002 1.738-.862-1.308-2.194 6.532-7.844.88.449 4.362-.449 2.604 1.311-.432 2.191 9.156 3.48v3.482l.002.002h2.623l1.311-4.796-.002-.017 3.479-6.965-3.05-2.618.001-.001-4.792-3.933 2.172-3.054 2.188.451 1.297 2.603 2.186-1.741 1.747 1.312-3.48 2.622-.001.001 4.785 1.309.86-4.362 3.507-2.173.43-2.19 4.362 4.363-3.051 4.795 1.313.858-1.313 1.761 2.62 1.294-2.618 2.187 3.051 2.621-3.48 3.914 1.739.878.002-.001 2.602 1.742 3.054-3.052 8.729 5.672-10.475 9.587 3.48 2.173-3.911 6.984 3.911 1.309-2.602 6.084 1.311.879-2.623 6.538-1.306-.864.002.021-6.539 3.054-3.481-.448-1.31 2.622 7.416 4.792-.884 2.622 4.364 3.913-3.051 4.363 3.051 6.538.862 9.604 3.936 4.797-3.484.857-5.248.45-13.516 3.482.002.002-13.952 2.171-1.743-8.272-.004-.002-4.362 4.361-1.735 5.651-13.504.883-1.308-3.478-.001.001-3.938-10.04-.002-.002-10.893-.862-3.487-4.362-2.183.432v-.002l-5.227.431-3.916.45.002.002 3.916-.45-6.968 1.762-.882 2.172-.001-.002-.88.88v.002l-.429.858-.001.001 3.055 3.481-1.744 2.192-6.986 2.603-3.908 5.674-4.799-3.48-.002-.006-.431 5.675-3.498 2.169.002.002v.003l4.793 2.173h.005l8.289 3.932 3.057-1.744 12.639 6.533.001.002 6.53-3.048 3.479 1.309 1.765 3.909 2.169.453-.879 1.741 1.309 4.366-1.736 2.595 9.156 6.99-3.914 7.414-3.504 1.741-1.311-1.31-1.285 2.171 3.053 6.557-1.313 4.792-7.848 6.103v.004l-3.934 2.603-.005.013-2.166 4.368-9.608-.857-3.482 5.653-2.172-2.176v-3.051l-4.359-.883-.027.005-2.164 1.72 2.623 10.036-3.916 3.48-.002.027 5.227 4.357 4.791 13.073-1.74 1.758.432 3.056-2.174 2.603-4.364.873v7.845l-3.483 3.486.435 1.735.001-.001 1.307 3.058 4.797-.866 1.309 6.107-2.171 2.603.862 2.62-.003.004 10.464-2.173 2.623 5.227-5.243 1.311h.008l.427 3.486h-3.049l.447 1.737-3.506 2.193 2.191 2.17-.427 2.621 2.603 1.313 3.935.43 1.737 2.625-11.781 4.347h-.003l-1.736 2.62 1.736 1.745 2.623-2.606 8.276 7.396-5.653 2.196-5.248-2.196-.424 2.621-2.176.433-3.501-3.054-4.341 1.311v.001l-.002-.001-.002.001-.001-.002-6.103-2.17-1.308 2.603h-.003l-3.481-.862-3.506 1.316-.429-1.742v-.005l-1.74-1.738-1.74 12.64-3.505-.454.002.005-2.173 2.19.434 2.623-3.914 2.603-2.191-1.74h-.004l-1.738.875-.005.023-3.052 8.276-2.602.873-4.813 6.972-6.965 3.048-4.357 3.938-.005-.003-1.307 3.036-4.362 1.293-.43-1.744-3.481 2.619-1.745-1.303.862-2.628.883-7.845 2.163-2.599-.001-.001 1.743-1.318.452-2.621 2.604-1.744.006.015 2.617-6.09h4.357v-5.248l1.747-2.618 3.482-7.849 2.62-.878-.004-.003-2.62-3.054-2.603-3.913v-.88l.859-3.482-3.905-3.928h-.001l-.002-.003-.002-.002-1.736-2.6-.88-3.935 1.309-6.103h1.312l2.173-5.228h-.004l-1.313-8.294-1.308-4.34v-.004l-2.173-3.507.43-.427-1.738-7.842v-.435h.003l-1.74-9.155-.434-.877-.005-.005-3.054-8.707v-1.31h.002l-4.357-10.031-.003-.005-3.479-2.6 2.599-1.314z" />
      <path fill="{{gkz20000}}" d="M287.306 618.204l.457-.325 2.565-1.889-1.329-3.424.055.003-.008-.021 1.878.123 4.663.257 4.335-2.166.012.051.011-.006.333 1.501 1.456 6.332 5.175-.491 2.229 2.206 6.055-1.318 3.1 3.497 5.18-.877 11.346 2.603 3.088 7.016-.009.005 5.252 3.453 2.989-2.162 3.103 1.284.03 2.237 8.641 4.294 1.284-3.438 7.895-.032 2.59-2.163 18.334-3.941-.036-.144-1.31-5.035 1.739-3.945 4.387-1.785 4.836 2.187 8.242-2.622 4.392 1.313.464 2.66 3.908 3.012 3.869-3.047 5.261.421 20.497 6.532 2.596-.854 7.433.427 1.784 3.939 6.484-.455 1.346.888-.859 5.703 1.73 2.585 3.492 2.612 6.513.85 4.403 11.381 5.211 6.087 5.656 2.16 1.688-1.729 3.937-.439 3.021-3.917 6.126-2.637 2.172.849.421-4.27 3.086-1.356.022.027 1.298-.497 4.354-1.72 2.582-3.917.012.024-.455-3.899h.051l-.001-.006h.599l5.509-.05 8.69-8.713 3.499-1.32 1.714-4.764.044.023.003-.007.615.337 4.198 2.239 6.932-6.092.021.048.012-.01 1.267 2.83 4.413 9.74.155-.294.222-.528 1.749-1.774 2.688 2.189 11.296-.893 5.69 1.314 3.075 2.627-.865 4.843 1.735 3.443.963-.678 6.384-4.554 3.951 1.299.092-.455.728-3.87.046.026.003-.017.517.313 1.672.953.183-.639.633-2.382 4.824-1.772 2.25 3.937 11.712-.891 1.36 2.632 3.451.854.008.012 2.167-3.895 16.572-1.738.862-1.311 6.985-3.482h5.655l3.934-2.625h2.603l.452 3.931.02.039-.016-.041 6.524 5.223.003.007 3.93 2.618 6.964 1.739 3.488 2.625 4.357 10.898 6.107 6.532v1.312l-1.737 6.107v.013l-1.313.435.429 5.653 1.762 3.055-.878 3.055-3.057 1.309-1.313 4.366-1.74 6.097-.009-.023.008.026h-.058l.063.006 3.48.876 5.678 2.622.426 6.105 2.188 3.05-1.309 1.313.86 1.738.004.001-3.056 12.638 2.191 1.311 2.623-1.311 2.604 4.362-3.916.431-4.361 2.621-6.103 9.587-1.315-5.245-2.62-2.176.003.009-4.346 4.363-1.312-1.312-.877 4.36-5.884-1.568-.65-.173-6.536 9.589-3.054 9.588-.448 6.536-5.654 2.621-4.159-1.25-.205-.058h-3.483l-1.763 3.479-2.604-2.172-2.188 9.157-3.057-1.31-3.907 6.105-10.905 2.191-2.19 4.339v9.155l-3.049 2.621-7.399-13.091-7.413 3.058-.454-1.739-5.651-.859-2.192-3.059.863-1.704-6.084-.434-15.675 3.931-4.406-3.501-8.229 3.072-3.106-2.636-4.752.012-2.595 2.161-3.522-.421-5.712-10.039-1.707-.425.006-.051-12.2-3.483-6.104 3.054-5.229-3.931-.365-.197-10.545-5.46-9.588 1.741-4.363-1.31-2.604 3.049h-3.053l-.261-.172-3.673-2.447-17.434-1.294-8.723-4.809-5.226-.863-2.621 2.169-2.172-3.48-8.727.432-.145-.324-1.575-3.533-5.226 2.166-8.746-.426-2.628-.436-.042-2.677-6.056-2.116v.741l.05 2.242-.05-.004v.004l-.347-.034-4.021-.35-4.308 3.919-.033.013-.011-.001-8.721-1.74-5.207 1.739-3.553-4.38-4.306-.409-4.394-3.944.009-.009-13.957-3.032-2.169.432-.014-.049h-3.011l-11.798.05-10.051-3.055-6.326.854c-.15.101-.32.175-.528.175-.192 0-.378-.079-.544-.188l-8.284-.391-.047-4.866-4.752-.809-5.694-3.943-3.455.009-4.331 3.046-.028-.041-.027-.04-2.638-3.84-3.894-1.721.404-11.404 4.806-.048-.775-1.088-1.403-1.882.426-5.259 6.565-2.669 7.85-2.173 2.634-.002.479 1.785 4.766-.038.003.011 2.563-2.614 7.423-4.357 5.723 3.058 5.597-5.66-.445-2.578-9.542-6.079-.404-.013-1.336-.871-1.761-3.956-7.825-4.771.407-7.893-1.729-2.138.851-2.241-2.599-1.679-2.172-1.311-2.585-1.291-1.35-3.075.042-.025-4.389-3.89.014-.014-2.641-1.286-.46-2.227-2.19-6.958 4.819-9.2 2.604-1.32-.626-.501-1.536-1.163-6.947.891-3.104-7.447-7.384-6.971.041-.03-.01-.001z" />
      <path fill="{{gkz30000}}" d="M1024.518 349.182l-2.173-4.794-3.934.879-6.1-4.36.001-.001-3.91-3.051-3.055-10.898-3.051-5.245 1.739-6.535-6.104-1.74-3.482-6.104h-.004l-1.31-3.481 2.167-3.504-6.531-3.032.428-2.622h-4.793l-.43-2.622-1.741-5.222 2.622-.451v-6.536l2.171-2.6-2.618-4.814h-.004l-.432-2.173 5.225-7.412v-.021l1.313-.429.88-4.797 3.482.431-.88-3.91 1.296-1.302.014.002 3.508-1.31 1.741-5.672-3.056-5.224-.882-9.158.002-.015.432-3.931-3.485-1.293.885-3.933-1.312-3.485.86-4.794-2.605-1.741v-.002l1.312-5.236-3.056-4.364-2.62.879-.878-2.192-1.74 3.053h-6.104l-4.792 1.762-6.965-2.192-2.193-3.482-1.738.428-2.175-1.741-6.981 2.621.001-.001-1.315-3.05v-6.535l-2.17-3.5h-11.777l-4.798-2.171-3.913-5.245-1.313.882.001.002-2.182 3.477-10.021-2.172-3.486 10.9v.002l-.88.86v-.002l-3.054 4.811-5.219 3.914h-3.06l-2.62-4.361-2.171 3.933-9.602-2.19v-.004l-7.843.45h-.003l-11.329-1.312-.879 1.312-7.85-.447-.031.416.031-.418-2.169-.429-3.931-1.738-.002-.003-11.762-5.673-4.36-3.914-3.491-2.196 1.293-4.793-2.169-.862-1.315 2.171-2.171-1.309.428-2.602-5.22.431-.449-2.192 1.758.452-1.309-2.191-1.744 1.739-1.306-3.913-2.195 1.743-3.911-1.743 1.74-1.74-1.308-2.621-2.624 1.741-7.848-.862-3.909 5.656-.002.004-7.414-1.744-3.05 1.312-6.102-6.531-4.365-.451-2.604-3.032-4.36.428v-.005l-12.208-3.931-1.74-5.654-5.672-3.502-2.173 1.312-4.361-1.312h-.006l-10.469-6.962-5.671-.881-1.74 2.19-3.913-.882-3.503-3.481.882 3.913-3.054 6.551h-.001l-6.106-1.756-5.673 4.362-2.169-.861-2.627 1.309-.427.431-.001-.001.428-.432 1.315-5.244-3.057-4.363.879-3.054-3.932-1.741-4.361 1.312.001.002-6.966-.862v-3.499l-3.93.449-3.488-2.192-4.358 3.056 1.308 1.306-.43 3.054.004.003-3.05 4.791 2.171 19.172v.005l-.88 5.244h-1.743l2.191 8.276h-2.191v4.36l-2.604 8.724 4.343 3.483-2.604 3.051v.002l-1.306 1.312-10.9-2.619-1.308-2.625h-8.728l.002.02-3.482.429.88 3.483-1.742 4.366 1.294 3.481.877.881-.001.001v-.001l-.884-.88-11.76 8.727-2.192 6.103v.004l-1.293 6.104 1.293 3.052v.015l-.855 5.222.855 3.484-2.168 4.363-2.625.43 3.503 1.312 4.342 6.533 3.059-3.052 2.62 2.191 2.173-1.311 4.356 1.311.004.002 4.365 2.62 1.742 3.484 4.365.432.004-.019 4.358 1.312 3.48 3.931h-.002l-.431 1.76h-4.361l-.428 3.054-3.486 1.741 1.739 3.913-.448 2.192 3.935 1.29 2.168 3.928h-.001l.002.001 3.054 2.623 3.503 2.172-5.243 6.534 3.054-1.741 3.482.879-.002.009 1.313 3.479-2.604 11.327-.447 2.192 6.104-.432.88 6.532-.002.001 1.306 10.469-3.496 2.595.879 2.622-3.93 3.933 3.93 5.224.882.431 1.096-.773-.002.006-1.091.771-.005-.001-.882-.427-2.616-1.744-3.486-6.104-7.417.86-1.309-1.29-4.796 2.173v3.049l-2.621 4.791-13.071 4.361.001.004-3.479 1.313-4.365-1.739-1.311 3.912-3.052 1.739-7.414-4.793-3.485-3.485-.002.001-6.102-7.84-4.361-2.193-6.536-1.288-.883.858-4.342 2.623-1.309 5.671v.002l.428 5.657v1.7550000000000001l-2.622 5.241 1.765 3.484-1.315 3.481 3.905 3.043-2.16 1.304-3.482 3.929 2.173.434-2.62 1.738.88 1.742h-.005l-.428 7.416 6.087 8.275v3.075l10.463 4.362 10.469 7.414v-.019l5.224 1.74 2.622-.431.005.019-2.625.43 3.934 1.314 5.221 2.6 4.364-2.6 6.986 13.515-.005.003-.876 2.167-8.725 5.675 2.622 2.17-2.622 5.223 3.936 4.814-3.484 2.6 2.171 5.677 3.483 3.052-1.295 1.311 5.224 5.654 8.728-4.793h2.171l1.309 2.625 3.053-1.742 3.057 6.106 4.359 1.312 4.362-.88 7.396-7.847 3.932.881 6.536-3.056.01-.01 3.478 2.617h5.674l6.536-1.737 1.742-3.056 10.034 1.313 2.623-10.898 11.759 1.31 1.742-7.415 7.842-1.74-.001-.003.021.001 2.605.429 2.192-.429 5.22 3.052 1.312 6.966 4.361-1.742 2.175 4.363 9.587 1.31 1.739 1.313-1.289 2.17 3.484 1.741 13.944-1.741 3.91 8.292 6.109 1.293 1.31 2.621 3.056-3.482 3.929.861 1.313 15.715 3.026 1.291.028-.002.428 2.193 6.099-2.623 6.964.879 3.058 4.796 3.478.431-2.602 7.408.427 4.369 6.989-.878 3.057 3.054.002.001v3.932l1.738 3.054 1.311.428 6.104 2.622h7.4l.005-.004 3.5.428 5.645 6.973 1.747-.432v-3.911l2.189.855 1.311-2.17-.012-.058.015.071 1.741-4.359h1.741l.879 4.359 1.741-1.307-.881 9.155 3.924 3.052-.866 2.159 1.735 3.479 5.244 3.928 5.656-.427 7.848-6.536-.001-.003 4.356-1.753 3.929-3.487-1.31-2.169 2.172-.883 1.742-3.483 3.052-5.67-4.338-6.106h-.453l-.428-5.654-.003-.002 3.053-6.104-.429-2.191 2.599-1.313.002.003 1.313-1.742-.86-1.739 3.48-1.743v-4.794l-3.48-6.984.86-2.169-5.65-.883-.001-.002-2.625-.858v-1.745h.002l-2.622-5.243v-6.533l.431-4.795.449-6.101-6.104-.881h-.001l3.052-5.224-.001-.001 4.794 1.312-1.31 3.48 1.31 1.74 5.222-5.221 1.31-4.364 1.312-.433 2.171-1.31-.86-.882 2.604-2.602-2.173-2.619-4.791-3.483h.002l5.671-2.621.865-1.31v.001l2.189 1.312 1.741-1.312.862-2.173-1.313-.451 2.188-2.6.432-3.934 4.363-4.363v-.003l10.898-2.604v.002l3.937 5.655 5.653 8.297 1.312-.451 2.618-4.344 1.744-2.191v-.001l3.483-5.227h-.002l1.31-3.044 3.052-3.932.88.879 5.652-2.193.457-2.172-.457-9.586-.002-.022.004.002 8.729-.432 7.412-4.363 4.361-.449.002.002h.434l1.738-.862-1.305-2.172 6.53-7.865.879.45h.002l4.36-.45v.002l2.605 1.309-.432 2.189 9.158 3.486v3.481h2.621l1.309-4.797 3.484-6.964-3.053-2.619-4.793-3.934h-.002l2.174-3.052 2.188.453 1.295 2.598 2.186-1.74 1.746 1.311-3.484 2.623 4.791 1.31.86-4.361 3.507-2.192.426-2.171-.874-.881 1.303-.433zm-82.372.884l-10.471-5.676-1.811.261-4.293.62-3.481 4.795h-3.06v4.794l-3.933.43-3.911-1.312-3.936-.858-.141-.044-6.826-2.151-1.738 4.795-2.19-1.312-5.226-2.171-8.271 3.052v-1.31l3.031-.86-4.794-3.934 1.927-1.155.263-.157-3.938-.429-3.055-3.933 3.941-7.847-.306-.915-1.441-4.308h-2.194l2.194-1.313-.449-5.223 1.76-3.5 5.656 3.5v2.604l2.616-.432.5-1.493.812-2.419 3.483-.881.29-1.173.572-2.311 3.932-.43 5.225-4.36 1.313 1.741h1.312l2.176-1.741.449-6.553 2.165-1.749 1.312 1.313 3.932-.862 2.179.862.427 6.103 5.677 3.933 1.037-.781.702-.529-.863-3.483 3.479.861 2.179.88-.86 3.053 2.604 2.175h3.935l-.88 5.24 2.19.862-2.19 16.12 1.741-.861 1.313 3.915h3.501l.437 4.363v2.194z" />
      <path fill="{{gkz40000}}" d="M305.185 369.667l1.743-6.535 4.358.881.882-2.192h.004l1.29-3.91 4.811-1.314 3.036-3.932-.003-.005 4.343-8.274 13.95-1.737h.026l10.464-11.782 7.847-3.484v.005l12.633-3.049.001-.005 9.159-3.054v.004l9.588.877 10.005-6.101.027.004 4.362-3.935.003-.006.428-.429.004.004 4.79-5.671.001-.004 5.668-3.908-.001-.006 2.171-6.985h.004l2.618-6.094-.014-.009-.431-4.797.018.002-1.309-3.053 2.176-5.674h.001l.873-1.292h.001l2.174-6.983-2.175-3.484.002-.004.864-2.19-2.177-5.222 2.177-1.741 2.191 2.62 2.169-.877-.003-.018.449-1.741 4.342-2.192-.861-2.17 2.169-2.173 6.114 4.793v.019l4.794 2.602 3.053-2.172 7.412 4.362 1.741.433 1.309 3.054 2.627 1.741.002-.003 8.272 4.363.002-.002 3.479-4.363-.426-3.484 1.735-4.795 1.313.864-.001.001 1.308.881 4.791-4.363.003-.017v-6.106l3.935-5.222.004-.002-1.313-10.037-.003-.002-.449-8.276 3.055.002.448-1.74h.001l-3.504-.431-3.479-3.503 3.929-3.913.434-5.671 3.054-4.364 6.101 1.309 8.278 7.847v.001l4.793 4.791 3.501.881.001.001 5.222 1.311 2.618 5.223.001-.001 6.106 2.619-.449 3.484-.859 1.741-4.366.431-2.165 3.051 3.053 3.051 2.599-.43-.861 3.933.002.02 2.177 2.172 2.616-.862-.43 3.036 4.792-1.294-.002 1.743v.002l3.05.859 2.605-2.173 5.242 2.173.001-.022 3.478-1.288 6.107 1.74v.019l3.484 2.173 4.792-.88.002-.003.003.002 3.931 3.055 4.792.878 1.734 3.042.008-.008 1.312-.429.073.662-.071-.646 2.618-4.795 3.487.862 2.619-2.171-1.311-3.498 6.967.878 2.191-3.913-.004-.006 2.171-5.242-2.171-4.793 3.911-.883 6.105 7.419 6.986.879 1.312 1.743v.013l.003-.009 8.707-5.674 3.496 6.104 3.036-1.313 3.053 6.554 4.359-.448 3.502 1.312 4.34 6.53 3.057-3.051 2.622 2.193 2.171-1.313 4.358 1.311 4.367 2.62 1.739 3.483 4.368.433 4.36 1.31 3.484 3.914-.433 1.758h-4.359l-.43 3.054-3.486 1.74 1.741 3.914-1.737.451v.003l.002-.002 1.741-.452-.45 2.192 3.936 1.289 2.164 3.935 3.056 2.625.448 3.052.004.002-.447-3.052 3.5 2.17-2.187 4.795 3.472.877 1.313 3.482-2.604 11.327-.447 2.193 6.099-.434.885 6.533 1.312 10.47-3.506 2.603.877 2.62-3.928 3.933v.002l3.93 5.228-2.616-1.742-3.484-6.105-7.417.862-1.311-1.29v-.001l-4.792 2.172v3.05l-2.62 4.795h-.002l-11.76 3.934v-.002l-1.304.425-.005.002-3.482 1.313-4.362-1.737-1.313 3.912-3.052 1.741-7.416-4.795-3.481-3.483-6.108-7.847-4.358-2.189-.002.002-6.531-1.288-.003-.001-.88.857-4.342 2.623-1.31 5.671.432 5.655-.006.002v1.737l-2.622 5.243 1.765 3.484-1.315 3.479 3.916 3.055-2.173 1.311v.005l-3.485 3.931 2.176.434-2.62 1.738.877 1.738-.428 7.415 6.087 8.278v3.053l10.463 4.361.002.022 10.467 7.412 9.157 3.058 5.221 2.6 4.366-2.6 6.981 13.518-.878 2.173-8.725 5.671 2.624 2.171-2.625 5.226 3.937 4.813-3.485 2.604 2.174 5.673 3.479 3.05-1.293 1.313-6.984-3.934-3.912 5.674-3.507 1.315-.432 3.048-4.788-.877-6.536 3.053-4.796-.428-4.361 3.05.43 3.056-2.175 3.483h-4.359l.13-.927-.13.923-6.985 6.966-4.359-.43.001-.003-3.909.879-.885 4.361-9.584 4.362-1.308 2.606-11.761-.867-5.674-7.417 1.742-2.188.959-.948-.966.952-2.623.455-2.171-.888h-.002l-4.363 3.936h-5.674l-8.701 4.343-6.986.88-.432-4.794.881-7.845-7.846-8.275-.018-.024-4.342.883-5.243-3.053-5.224 1.309-4.362-3.052-5.653-2.194-.027.022-1.741 3.03-1.741-.858-7.845 1.311-2.622-1.311.002.003-4.796 7.847-2.603.432.862 2.618-5.226 2.169v2.193l.002.002-2.188 8.269.878 5.675-.878 5.22-.003.021 6.987.882 3.482 6.105.43 1.739-2.172.862 2.62 5.243-1.745 4.791-5.239 6.968 1.309 2.627h-10.034l-10.452-3.056v-.021l-.005.002-3.049.427-11.779-5.649-6.965-8.301.859-8.273-.432-1.31 4.366-3.48 2.601-10.019v-.004l-.86-2.62-4.363.859-.884-3.052 2.629-6.533 3.053-1.742 2.168.882.016-.01-2.182-.874 2.623-1.745 3.057-7.844-.005.002-12.21-2.192-6.982-3.909 1.306-8.297 3.481-3.481 8.299 3.481 3.482-1.292h-.005l-1.312-5.243-6.529 2.19-1.309-3.052-5.225-.88-8.723 1.74h-.008l-1.742.881-6.105-3.934-6.533-.431-.434-2.624-3.932-2.17 1.31-8.296-3.925-6.527 1.74-3.483.005-.004v-12.209l4.361-2.623 8.721 6.104.858-1.307.008-.002 1.31-6.532.001-.017-11.759-6.106v-3.034l-2.188-.432-1.314 3.054-11.327 3.935-.004-.013-.427.851-2.19 1.313-8.709-.432-.88-2.621-1.744-.863h-1.312l.429-1.741-3.474-.431.001-.019-4.367-1.741-.858-3.052-2.194.862v-4.344l-2.171.861v-2.604l-3.049 1.293-2.625-.861v-.002l-3.479 1.739-3.056 1.313-5.67-3.05-.006.018-.857.431-.018-.006-3.917 3.039-3.052 7.415-5.222-1.312-4.363-7.847h-.002l-11.779-10.897-2.171-6.985v.002z" />
      <path fill="{{gkz50000}}" d="M190.942 588.563l-.881 5.221 2.622 12.208 2.192 1.309 4.345 14.835 2.189.431 6.103-3.481 6.967 2.621 2.192 3.481 3.482-.879 3.933-4.794.001.001 4.36-.43.452-2.193 5.653-1.742 2.623-1.739.862-6.106h.018l6.103-2.621.002.018 2.602 2.603 3.052-2.171 5.244 1.741 3.041-3.475 6.524 2.167 3.916 5.227 3.506-1.296.006.003 3.916.433.431 2.169 4.363.88 6.536 5.224 3.053-2.173-1.293-3.482.004-.002 6.537.433 4.359-2.171 1.739 7.842 5.229-.451 2.192 2.192 6.082-1.31.002-.007 3.049 3.479 5.227-.858 11.326 2.601 3.054 6.989 5.244 3.48 3.052-2.171.178-.429-.182.438 3.053 1.293v2.192l8.71 4.36 1.311-3.503h7.845l2.621-2.171 18.315-3.914-1.312-5.243 1.74-3.913 4.365-1.756h.016l4.797 2.188 8.275-2.621-.378-.756h.003l.375.75 4.365 1.315.425 2.614 3.932 3.055 3.932-3.055 5.231.436 20.48 6.533 2.625-.859-.004.008 7.416.424.002-.002 1.741 3.913 6.533-.428v-.001l1.309.879-.882 5.656 1.74 2.617 3.503 2.625 6.538.86 4.363 11.348 3.054-1.739 4.36-3.055 2.602-6.102 3.505-2.192v-6.104l6.534-11.33-3.929-8.723.426-2.176 9.611-6.532 3.051 3.052 5.227-.878.88-3.913-8.726-6.102-4.364-1.31-1.311-3.059-2.171-.429 1.306-2.19-6.534-6.107-.002.003-2.616-2.173 3.05-3.053-.878-2.621-6.968-3.909.432-6.556-6.108 1.311-.877 3.485-3.913 2.187-.001-.003-2.174-3.053h-3.931l-2.174 4.796-2.617-.428v-.001l-3.483-3.506h-6.106l-5.24-2.167-.002-.004-1.742-2.629.88-8.705-5.667-15.688v-.036l-.887-5.652-.434-.432h.004l4.794-10.444-.864-3.505-11.777-5.651.001-.023-6.963-8.3-.017-.037.877-8.231-.005-.009-.433-1.308 4.367-3.481 2.602-10.018-.859-2.62-4.363.858h-.005l-.882-3.055 2.625-6.532 3.055-1.741 2.625-1.741 3.049-7.846-12.217-2.197-6.975-3.908.004-.002 1.304-8.294 3.483-3.481 8.297 3.481 3.484-1.291-1.311-5.245-6.536 2.193-1.309-3.052-5.227-.881-8.725 1.74-1.741.886-6.105-3.932.003-.003-6.532-.43h-.005l-.434-2.623-3.929-2.171 1.31-8.297-3.933-6.533h.003l1.743-3.484v-12.208h.006l4.359-2.624 8.726 6.107.857-1.314 1.31-6.532-11.756-6.104v-3.052l-2.189-.435-1.313 3.053-11.328 3.936-.431.859-.02-.002-2.191 1.313-.02.002-8.669-.428.002-.002-.879-2.622 1.74-2.173-3.484 1.289h-1.311l.432-1.74-3.48-.432-.002.003-4.369-1.744-.858-3.051-2.191.861.002-4.343-2.178-1.759-3.049 1.294-2.625-.862-3.48 1.739-.003.021-3.046 1.308-5.676-3.052-.02-.018-.859.429-3.933 3.053-3.054 7.415-5.221-1.311 1.741 8.276 8.276 3.052.374-.123.016.018-.39.129-.433 2.618 3.051-.427.434 1.739.027.017 4.355 8.707-.002.001 3.483 7.848.003.001 2.619 3.909.005.006v2.613l-2.174 2.621-.004.004-10.037 14.81 2.194.432v2.19l-6.556 9.588 3.503 3.482 10.447.453-.274-.662.276.662 3.913-3.505 5.674 2.627.02-.003 6.105 6.534-.451 4.361 3.054 8.725-5.66 7.848 1.313 3.049h-.004l-4.812 1.314 2.194 5.652-4.363 6.985 2.618 3.056.431 6.963-3.48 1.31-1.74 3.054-.001.005-2.191 3.047-1.737-3.918-3.056-1.738-1.314 2.604-6.103-3.054-.002.003-7.84-6.539-.018.002-1.317-2.175-4.344-2.189-.88-3.917-6.105-.45-3.478-4.34-.002.001-1.738-3.501.002-.001 2.169-4.791 2.624-3.053 3.052-.436-11.348-9.579 4.365-5.247-3.916 1.74-4.363-3.486-6.533-.856-4.812.426-3.031 2.627-3.051-1.763-4.363.878-4.796 10.038-.452 6.532 13.517 4.796-.668-.669 2.844 2.84-6.529 7.42 4.356 3.049-.005.008.88 6.107 1.294.879 5.242 7.392-.006-.001-6.099 3.501h-5.222v8.273l-1.314 2.174.002.018-8.296 7.416-5.224-1.311-3.483 1.744-3.049-.864-5.246 6.105 3.503 5.225-.455 2.617-3.05 2.623-6.105-.446-5.221 3.507-6.074.427-.009-.008-6.537-3.926-3.054.446-3.504-1.756-5.654 7.411-1.736-1.307-2.622 1.753-1.314-3.053-1.744.432-.016.005-3.482 2.62-5.675-.449-3.48 3.505-5.245-4.794-6.105 7.395 5.246 8.727h-.001z" />
      <path fill="{{gkz60000}}" d="M445.134 525.758l3.054-.427 10.451 3.054h10.023l-1.3-2.606 5.237-6.967 1.743-4.787.295-.361-.004-.019-.291.356-2.623-5.227 2.173-.878-.428-1.744-3.486-6.097-6.986-.884.88-5.222.007-.005-.879-5.667 2.189-8.279v-2.189l5.222-2.173-.857-2.62 2.602-.432 4.794-7.843 2.623 1.31 7.842-1.31 1.741.876 1.741-3.049 5.675 2.169.007-.003 4.359 3.049 5.226-1.309 5.243 3.052 4.335-.857 7.87 8.273-.883 7.845v.005l.43 4.794.004.011-.002-.006 6.986-.865v-.009l8.703-4.357h5.674l.004-.006 4.361-3.935 2.169.888.002.003 2.625-.453-1.743 2.189 5.673 7.419 11.759.863v.002l1.312-2.608 9.587-4.358v-.004l.881-4.361 3.912-.884 4.364.448h.002l6.98-6.983h4.363l2.171-3.481-.427-3.055 4.36-3.051 4.796.428 6.534-3.051 4.789.88.431-3.051 3.505-1.314 3.909-5.675 6.989 3.938 5.224 5.654-.003.002 8.729-4.793h2.168l1.312 2.624 3.055-1.745 3.057 6.106 4.358 1.312 4.363-.879 7.394-7.85 3.932.883 6.538-3.053 3.48 2.602 5.676-.003h.006l6.531-1.738 1.762-3.056 10.015 1.313-.003-.003 2.621-10.896 11.76 1.309 1.741-7.414 7.845-1.74 2.622.428v-.001l2.191-.431 5.223 3.054 1.312 6.966 4.362-1.74 2.171 4.36 9.593 1.31v1.313l.004.002v-1.313l1.739 1.313-1.289 2.168.001.005 3.47 1.736 13.948-1.741 3.911 8.294 6.109 1.293 1.315 2.625h.009l3.052-3.486 3.929.861 1.308 15.713 3.031 1.293.452 2.188 6.104-2.62 6.966.879 3.056 4.792 3.48.431-2.603 7.416.429 4.365 6.986-.878 3.057 3.054v3.933l1.736 3.049-.002.003 1.313.427.003-.004 6.101 2.621.002.003h7.396v-.003l3.507.437 5.646 6.963 1.745-.434v-3.89l2.191.858 1.312-2.174 1.741-4.355h1.741l.882 4.355 1.738-1.307-.883 9.159 3.932 3.054-.874 2.167 1.733 3.486 5.248 3.931-5.248 1.741-.007-.02-4.349.88h-2.609l1.318 4.794-2.191 1.313-1.744-1.744 2.171-2.625-2.171-.425v-.001l-3.485 6.102-.452.452-4.791 1.309v.005l.454 1.74h-.454l-2.597 1.313 3.479 2.598 4.36 10.041v1.305l3.054 8.709.431.878h.001l1.742 9.159v.435l-.004.001 1.744 7.843-.431.43 2.172 3.504 1.308 4.338.002.004 1.313 8.294-2.175 5.228h-1.313l-1.309 6.103-2.623.428.001.002 2.625-.43.879 3.935-.005.002 1.744 2.603 3.908 3.932-.857 3.479v.88l2.485 3.736.124.177 2.617 3.054 1.743 2.194-4.36-1.313-3.483 7.845-1.747 2.618-2.619.863 2.617-.859v5.223h-4.357l-2.623 6.101-2.604 1.744-.45 2.625v.019l-1.743 1.309-2.167 2.603-.883 7.848-.001-.001-.86 2.622-1.735 2.189 2.168 4.791-1.313.865-.003.002-.425 13.086 1.305 5.221-.88.883.88-.88 2.175 3.481 4.362 1.316 2.175 6.103-.432 7.416-4.793-2.175-1.313-2.621-3.481-2.193-6.107-.855-.001-.004-6.1-4.795-6.107-2.188-7.842-.429-7.848 4.358-5.668 2.173-.001.002-17.436-1.313.857 3.505h-2.601l-1.309 2.601h-3.056v-.002l-2.62-2.165-1.313 1.31v-.003l-3.48 1.313-3.911 2.604-.248-.956h-.001l.247.952.859 7.414-4.36 3.931-3.482 2.604-2.624-1.293-2.603 2.174-4.362-7.416h-2.623l-2.172-3.056-6.431.863-.123.025-12.636.429-.003.004-12.637 3.481-5.227-1.291.697-1.465-.695 1.46-3.932-2.622-6.104-.881-3.06 2.62-3.052-2.62-4.796 3.932-3.05-1.738-2.604-4.364-2.621 1.307-2.192-1.307 3.054-12.636-.859-1.747 1.309-1.308-2.186-3.051-.004-.001-.431-6.1-5.672-2.627.003-.006-3.485-.875 1.74-6.089.012-.012 1.309-4.347 3.052-1.312.88-3.05.616.151.003-.014-.626-.154-1.761-3.057-.429-5.679 1.314-.428 1.735-6.097v-1.298l-6.105-6.534-4.355-10.898-3.49-2.625 1.048-.583-.012-.008-1.034.575-6.964-1.742-3.932-2.622-6.531-5.226-.452-3.93-.002-.001h-2.604l-3.935 2.625h-5.655l-6.977 3.478.001.002-.884 1.309-16.552 1.743-2.188 3.932-3.484-.883-1.31-2.603.056-.377-.002-.001-.056.382-11.757.863-2.192-3.914-4.793 1.745-.878 3.053-1.894-1.145c-.129.213-.271.418-.433.607l-.708 3.585-3.931-1.31-.346-.863-.005-.001.344.86-7.413 5.228-1.743-3.485.882-4.792 1.146-.986-1.148.986-3.059-2.615-5.673-1.315v-.003l-11.324.881-2.615-2.192-1.74 1.759-.002.004-.452.857-5.655-12.636-6.987 6.103-4.791-2.616.569-.461h-.004l-.005-.001-.561.453-1.741 4.796-3.479 1.308-3.935 3.935-.711-.555-.006.003.719.562-4.793 4.794h-6.109l.434 3.913-2.606 3.935-5.667 2.171-3.059 1.312.493-1.229-.004.001-.489 1.219-.43 4.357-2.187-.873-6.107 2.615-3.055 3.937-3.914.429-1.736 1.739-5.676-2.163-5.225-6.114 3.054-1.739 4.364-3.051 2.601-6.103 3.507-2.191v-6.104l6.532-11.33-3.93-8.724.425-2.178 9.611-6.534.004.026 3.043 3.042 5.225-.889v-.005l.879-3.91-8.727-6.101 2.369-.155-.002-.003-2.363.154-4.361-1.312-1.312-3.056-2.17-.429h-.003l1.309-2.187-6.534-6.104-2.618-2.18 3.05-3.053-.877-2.618-.005.001-6.966-3.934.432-6.534.369-.245-.371.246-6.108 1.308-.875 3.485-3.916 2.193-2.174-3.054h-3.932l-2.171 4.792-2.62-.427-3.485-3.508h-6.103v-.001l-5.24-2.17-1.742-2.623.878-8.704-5.665-15.709-.887-5.662 1.085.086.001-.005.001-.007-1.087-.086-.43-.433 4.796-10.466-.862-3.505z" />
      <path fill="{{gkz70000}}" d="M304.734 631.729l2.173 1.739-2.602 1.312-4.816 9.154 2.191 6.97.023.016.433 2.178 2.62 1.307 4.361 3.909 1.293 3.054 2.62 1.309-2.62.438-.001.011 2.608-.429 2.183 1.312.001-.004 2.621 1.748-.86 2.187 1.74 2.172-.229 4.157.23.21-.328 1.558-.105 1.92 7.845 4.796 1.745 3.934-.015.001 1.308.86.018-.006h.431v.006l9.588 6.106.43 2.62-5.655 5.674-5.675-3.054-7.416 4.337.109-.345-.111.351-2.6 2.619h-4.814l-.429-1.734v.002h-2.62l-.001-.004-7.847 2.171v-.002l-6.528 2.622-.006.002-.427 5.221 2.171 3.054h-4.796l-.429 11.356-8.725 1.303-1.741-2.622v.004l-10.47 2.62-3.05-2.185-.018-.002-6.105-4.796-6.107.432-.86-2.603-5.676-.447-2.6-2.607-7.865-5.247-3.481-13.95.003-.018-12.644-2.172v-7.845l3.932-6.536-1.76-.876-.858-5.227.012-.007-2.616-1.759v-2.605l-5.225-1.738-4.794 3.913-3.5-7.416-8.277-3.057 3.934-5.222-6.105-6.536.862-4.791-1.74-.878-.88-5.224 4.36-4.363 3.054 1.312 6.96-1.733v-.008l2.171-7.846 3.936-2.617 3.482-.888 3.934-4.789 4.34-.43.452-2.175 5.653-1.76h.027l2.62-1.734.881-6.111 6.104-2.599 2.603 2.599 3.054-2.169 5.24 1.737 3.054-3.478 6.538 2.172 3.912 5.237 3.493-1.307 3.916.432.429 2.164.006.018 4.334.876 6.556 5.218 7.396 6.986 3.051 7.416 6.986-.881zm-448.609 15.256l3.933-10.464h2.172l-.001-.005-.436-5.223-5.243-4.364 2.194-1.742 3.913-4.794-.864-3.482-2.622-.45-.43-3.482 4.796-8.728 4.787-1.308v-2.174l3.932-.427-.875-3.059 3.047-1.309-1.308-2.191.502.301-.498-.301v-3.483l-2.171-5.219 3.047-3.486v-4.362l-2.618-3.054 4.364-3.933-7.848-3.055.428-1.738 3.932-1.315 5.657 1.74 5.675-4.339.569 1.42-.566-1.412h2.619l5.656-3.935 2.622.429 3.051-3.056.002.003 8.278-14.379 4.365-1.743 3.038.854-1.307-2.614 1.311-4.796 6.532-5.241v-2.603l.01-.002-1.308-10.039-.005.01-3.055-.432-1.288-2.625-.883-2.17 4.363-12.643-3.05-3.934.431-3.479 7.846.431-5.223 6.983 6.103 3.914v.001l1.311.427h.004l4.36.88h6.536-.003l.001.002 1.737.877 1.314-5.243 3.05-3.48 13.505 3.914h-2.174l.006.004h2.171l2.191-1.299.433 3.912 7.836 1.744.003-.001 3.055 1.309.448 3.484v.019l2.169 1.744 6.104-1.293v-1.763l13.069-2.171 2.193 4.794 2.603.428-8.277 3.935v4.361l2.193.865 4.342-1.291 4.365.859-.432 3.486 8.275 9.609-2.601 6.532 3.482 1.739.002-.006 3.911.436 6.987.428v.006h10.018l2.619-3.933 4.794-2.172 8.297-3.053 7.395.859.448 1.312-5.667 7.411 10.03-.877 2.171-6.538 6.533-2.625 1.312-2.603 13.953 1.747-1.74-5.677-4.364-1.742 9.158-10.465 2.171 2.193 9.604.859 11.33-2.166 2.623-2.625v-7.416l2.171-3.053.005-.009 1.312-3.478h4.362l.43-3.057 3.934 2.625 19.599-1.306v.004l11.345 2.621 2.168-5.243 6.537-1.313v-.005l13.519-1.288 5.672-2.62 2.174 3.484 6.534-1.314 3.934 2.189 10.9.43h.023l5.223-1.739-.432 3.481 4.792-1.742-1.309-8.274-1.743-3.937-.017.005-3.916-10.898h3.916l4.362-2.174 7.848-8.295 1.308 3.054-3.935 10.04.022-.002 2.188 3.052 12.207-3.931h.004l1.74-.429v1.734l.001.002 4.36 1.737 12.636-2.621-.431 4.797 4.799 6.552 5.22 6.103 4.367-1.304 2.173-1.31 6.557.877-.452 6.535 13.524 4.793 2.168 2.173-6.535 7.414.001.001 4.365 3.054.876 6.103 1.292.885.001.012 5.245 7.402-6.107 3.498h-5.223v8.279l-.004-.008-1.313 2.163-8.296 7.42-5.221-1.309v-.008l-3.48 1.741-3.051-.86-5.248 6.101-1.307.861-.018.017 1.309-.859 3.505 5.221-.453 2.621-3.052 2.623-6.105-.446-5.222 3.501-6.103.426-6.534-3.927.003-.019-3.041.452-3.502-1.743-5.656 7.395-1.738-1.312-.018.016-2.623 1.763-1.31-3.056-1.743.431-3.482 2.62-5.653-.442-3.479 3.482-5.245-4.795-6.105 7.416-1.736-.862 1.733.862 5.243 8.729-4.362 6.53-.881 5.226 2.625 12.206-.02.002 2.192 1.313 4.344 14.831-3.056 1.744-3.48-1.313-3.915 4.796-5.673-.434-3.931 3.479-6.964-1.304-.002-.006-5.673 4.359-2.173-1.308-3.052 1.308-6.987 5.226-6.533 4.365h-9.588l-2.623 4.362-3.054 1.313-3.479-1.313-2.623-5.22-7.842.427-6.537-5.672.433-2.604h-.002l-.433 2.604-6.106 2.189v-.001l-9.156 4.795-4.362-5.228-5.658-1.758-1.308 3.934-3.054.88-3.049 4.336.001.006-5.675 2.189-3.482-1.308-3.935-5.224-3.913.862-2.19-1.742-2.602 2.171-3.051-.429-6.99 2.625-.002-.004-6.96 2.602-2.192-2.175-3.484 2.175-1.74-.856.432 5.668-5.223 3.484-3.931-.884-.863 3.937-2.189.426.431 6.104-5.226 8.73-.433 3.913 2.174 3.93-7.418 3.914-3.052 9.605-1.74-1.31-3.049.86-13.072-2.174-6.106 2.623-7.411-4.813-4.367 1.317-4.792-5.228-4.794 2.623-4.793-.882-.433-2.619 6.536-5.66-1.313-2.621-10.466-5.219.881-2.628-5.241-3.481.001.008-2.604 2.171-4.36.428-.002.022-13.093 6.101.452-3.055-9.152.454-3.054-3.056-1.739.861-.884-6.967 3.933-7.85.861-5.24v-.01l-5.223-3.917-.01-.003-5.67-2.191.431-3.911-6.102-6.557.002-.001v-.003l-3.049 2.624-3.482-.428v-2.192l-.004 2.192-4.36 9.155-3.482 1.308 1.308 5.659-3.479 1.311-9.156-3.481h-.002l-3.059 8.726.864 7.39h-6.533l-4.363 3.507h-3.913l-.88-6.1-5.222-5.25-1.314-7.843 4.795-3.474z" />
      <path fill="{{gkz80000}}" d="M-236.733 554.128l.002.003 6.1-4.792-.002-.004 1.31-4.79 4.364-6.11h.001l5.225-.878 3.483-2.624.879-3.054v-.016l-3.483-3.482-.877-7.416 2.622-4.339h-.002l-6.104-1.762-2.624-3.485-1.741 2.191-5.242-10.036 3.051-.864.001.002 6.554-1.308.002-.006 3.912-1.314.005.01 4.786-.88.003-.004 10.465-2.604.002.002 4.365-9.152v-.005l2.173-3.932 2.19-1.312 3.48-.428 3.484 2.166h.005v.004h-.005l.431 6.981-1.741 2.629 2.193 1.287 7.408 4.359.002-.005 1.291-4.793 4.365 1.745 2.618 3.048 2.621-1.305 4.346.448.876-3.053-.875 6.11.02.002 4.792 5.219-1.312.88 1.744 3.914 8.276-.431.88 4.797 2.625 3.055 3.479-.432 1.74 6.963h.001v.004h-.001l-1.309 3.048-4.796 1.743 2.625 2.625 1.74 10.035v.002l.431 1.293.005.004 3.474-5.219 3.504 2.177h4.343l.878-4.344 2.624-.88 4.343 2.623 2.622-2.192 1.313 2.192-6.536 13.495 1.742 1.766v3.052l-3.932 3.053-1.74-.882-1.312 4.36.876 2.175-.428 1.738 7.848 3.057-4.362 3.927.001.002 2.619 3.052v4.364l-3.051 3.488 2.171 5.215v3.486l1.308 2.19-3.05 1.311.879 3.054-3.933.427v2.178l-4.792 1.304-4.796 8.733h.005l.429 3.48 2.623.446.864 3.482-3.914 4.799h-.002l-2.193 1.741 5.242 4.36.435 5.228h-2.17l-3.934 10.468-4.794 3.48 1.312 7.848 5.222 5.24.88 6.104-6.987 2.173-2.174-4.796-6.103-.88-.876-3.911-3.916-4.792-6.106-1.743-1.739-3.501v-.001l-6.985.447-10.02-5.673.432-5.677-1.312-1.737 3.934-6.105-.455-3.056-2.6-2.601.862-2.617-6.966 1.737-6.982-4.793-.001.001-1.737-1.741-10.9-2.187-1.742-2.177-.003-.002-5.224-2.191-.018.002h-5.221l-2.176 2.195-4.362-2.62.86-4.364 3.934-1.289.429-1.764-2.173-4.789 2.173-4.346-1.742-6.105.001-.004-2.621.859-1.292-3.909-5.669-1.762 3.912-8.706-.006-.004-5.22-4.794 2.625-4.365-5.677-7.414 4.366-6.529z" />
      <path fill="{{gkz90000}}" d="M879.348 347.444l3.938.429-.263.157-1.926 1.156 4.794 3.933-3.032.86v1.31l8.272-3.052 5.225 2.171 2.191 1.312 1.738-4.795 6.826 2.151.141.044 3.936.859 3.911 1.311 3.932-.43v-4.794h3.06l3.481-4.795 4.293-.619 1.811-.261 10.47 5.675v-2.192l-.436-4.363h-3.501l-1.313-3.915-1.741.861 2.191-16.12-2.191-.862.88-5.241h-3.934l-2.604-2.174.86-3.053-2.178-.88-3.48-.861.864 3.483-.703.529-1.037.781-5.677-3.933-.426-6.103-2.179-.862-3.932.862-1.311-1.313-2.165 1.749-.449 6.553-2.176 1.741h-1.312l-1.312-1.741-5.225 4.36-3.931.43-.573 2.31-.29 1.173-3.483.881-.812 2.419-.5 1.493-2.616.432v-2.604l-5.656-3.5-1.76 3.5.449 5.223-2.194 1.313h2.194l1.442 4.308.305.915-3.941 7.847z" />
   </g>
</svg>